<svg width="223" height="67" viewBox="0 0 223 67" fill="none" xmlns="http://www.w3.org/2000/svg">
<g clip-path="url(#clip0_54_30)">
<path d="M31.66 44.5557C29.2996 46.273 27.6909 48.8711 27.18 51.7912L24.1 45.7445L16.32 53.6769L17 58.8012L14.9 60.9739L11.36 54.4353L5 50.8278L7.12 48.6551L12.08 49.3725L19.86 41.3787L5 33.4258L7.82 30.5357L26.22 34.8811L34 26.9077C34.2772 26.6202 34.6073 26.3919 34.9712 26.2361C35.3351 26.0802 35.7256 26 36.12 26C36.5144 26 36.9049 26.0802 37.2688 26.2361C37.6327 26.3919 37.9628 26.6202 38.24 26.9077C39.4 28.1171 39.4 30.1053 38.24 31.2531L30.46 39.2265L31.66 44.5557ZM45 53.6769C45 59.0061 38 67 38 67C38 67 31 59.0061 31 53.6769C31 49.7825 34.2 46.5029 38 46.5029C41.8 46.5029 45 49.7825 45 53.6769ZM40.4 53.8819C40.4 52.6521 39.2 51.4222 38 51.4222C36.8 51.4222 35.6 52.4471 35.6 53.8819C35.6 55.1117 36.6 56.3415 38 56.3415C39.4 56.3415 40.6 55.1117 40.4 53.8819Z" fill="#F2CA52"/>
<path d="M42.56 42V14H45L57.8 35.84H56.52L69.2 14H71.64V42H68.8V18.44H69.48L57.8 38.44H56.4L44.64 18.44H45.4V42H42.56ZM93.3231 42V37.36L93.2031 36.6V28.84C93.2031 27.0533 92.6965 25.68 91.6831 24.72C90.6965 23.76 89.2165 23.28 87.2431 23.28C85.8831 23.28 84.5898 23.5067 83.3631 23.96C82.1365 24.4133 81.0965 25.0133 80.2431 25.76L78.9631 23.64C80.0298 22.7333 81.3098 22.04 82.8031 21.56C84.2965 21.0533 85.8698 20.8 87.5231 20.8C90.2431 20.8 92.3365 21.48 93.8031 22.84C95.2965 24.1733 96.0431 26.2133 96.0431 28.96V42H93.3231ZM86.0831 42.2C84.5098 42.2 83.1365 41.9467 81.9631 41.44C80.8165 40.9067 79.9365 40.1867 79.3231 39.28C78.7098 38.3467 78.4031 37.28 78.4031 36.08C78.4031 34.9867 78.6565 34 79.1631 33.12C79.6965 32.2133 80.5498 31.4933 81.7231 30.96C82.9231 30.4 84.5231 30.12 86.5231 30.12H93.7631V32.24H86.6031C84.5765 32.24 83.1631 32.6 82.3631 33.32C81.5898 34.04 81.2031 34.9333 81.2031 36C81.2031 37.2 81.6698 38.16 82.6031 38.88C83.5365 39.6 84.8431 39.96 86.5231 39.96C88.1231 39.96 89.4965 39.6 90.6431 38.88C91.8165 38.1333 92.6698 37.0667 93.2031 35.68L93.8431 37.64C93.3098 39.0267 92.3765 40.1333 91.0431 40.96C89.7365 41.7867 88.0831 42.2 86.0831 42.2ZM108.766 42L99.4463 21H102.406L110.966 40.48H109.566L118.246 21H121.046L111.686 42H108.766ZM133.38 42.2C131.193 42.2 129.273 41.7467 127.62 40.84C125.967 39.9067 124.673 38.64 123.74 37.04C122.807 35.4133 122.34 33.56 122.34 31.48C122.34 29.4 122.78 27.56 123.66 25.96C124.567 24.36 125.793 23.1067 127.34 22.2C128.913 21.2667 130.673 20.8 132.62 20.8C134.593 20.8 136.34 21.2533 137.86 22.16C139.407 23.04 140.62 24.2933 141.5 25.92C142.38 27.52 142.82 29.3733 142.82 31.48C142.82 31.6133 142.807 31.76 142.78 31.92C142.78 32.0533 142.78 32.2 142.78 32.36H124.5V30.24H141.26L140.14 31.08C140.14 29.56 139.807 28.2133 139.14 27.04C138.5 25.84 137.62 24.9067 136.5 24.24C135.38 23.5733 134.087 23.24 132.62 23.24C131.18 23.24 129.887 23.5733 128.74 24.24C127.593 24.9067 126.7 25.84 126.06 27.04C125.42 28.24 125.1 29.6133 125.1 31.16V31.6C125.1 33.2 125.447 34.6133 126.14 35.84C126.86 37.04 127.847 37.9867 129.1 38.68C130.38 39.3467 131.833 39.68 133.46 39.68C134.74 39.68 135.927 39.4533 137.02 39C138.14 38.5467 139.1 37.8533 139.9 36.92L141.5 38.76C140.567 39.88 139.393 40.7333 137.98 41.32C136.593 41.9067 135.06 42.2 133.38 42.2ZM148.601 42V21H151.321V26.72L151.041 25.72C151.627 24.12 152.614 22.9067 154.001 22.08C155.387 21.2267 157.107 20.8 159.161 20.8V23.56C159.054 23.56 158.947 23.56 158.841 23.56C158.734 23.5333 158.627 23.52 158.521 23.52C156.307 23.52 154.574 24.2 153.321 25.56C152.067 26.8933 151.441 28.8 151.441 31.28V42H148.601ZM164.343 42V21H167.183V42H164.343ZM165.783 16.36C165.196 16.36 164.703 16.16 164.303 15.76C163.903 15.36 163.703 14.88 163.703 14.32C163.703 13.76 163.903 13.2933 164.303 12.92C164.703 12.52 165.196 12.32 165.783 12.32C166.369 12.32 166.863 12.5067 167.263 12.88C167.663 13.2533 167.863 13.72 167.863 14.28C167.863 14.8667 167.663 15.36 167.263 15.76C166.889 16.16 166.396 16.36 165.783 16.36ZM183.805 42.2C181.725 42.2 179.858 41.7467 178.205 40.84C176.578 39.9067 175.298 38.64 174.365 37.04C173.432 35.4133 172.965 33.56 172.965 31.48C172.965 29.3733 173.432 27.52 174.365 25.92C175.298 24.32 176.578 23.0667 178.205 22.16C179.858 21.2533 181.725 20.8 183.805 20.8C185.592 20.8 187.205 21.1467 188.645 21.84C190.085 22.5333 191.218 23.5733 192.045 24.96L189.925 26.4C189.205 25.3333 188.312 24.5467 187.245 24.04C186.178 23.5333 185.018 23.28 183.765 23.28C182.272 23.28 180.925 23.6267 179.725 24.32C178.525 24.9867 177.578 25.9333 176.885 27.16C176.192 28.3867 175.845 29.8267 175.845 31.48C175.845 33.1333 176.192 34.5733 176.885 35.8C177.578 37.0267 178.525 37.9867 179.725 38.68C180.925 39.3467 182.272 39.68 183.765 39.68C185.018 39.68 186.178 39.4267 187.245 38.92C188.312 38.4133 189.205 37.64 189.925 36.6L192.045 38.04C191.218 39.4 190.085 40.44 188.645 41.16C187.205 41.8533 185.592 42.2 183.805 42.2ZM199.552 36.56L199.632 32.92L212.712 21H216.192L206.952 29.84L205.352 31.2L199.552 36.56ZM197.312 42V12.32H200.152V42H197.312ZM213.592 42L204.832 31.08L206.672 28.88L217.072 42H213.592Z" fill="#18568C"/>
<line x1="213.074" y1="39.141" x2="221.074" y2="49.141" stroke="#18568C" stroke-width="2.75"/>
<circle cx="218" cy="46" r="4" fill="#18568C" stroke="white" stroke-width="2"/>
</g>
<defs>
<clipPath id="clip0_54_30">
<rect width="223" height="67" fill="white"/>
</clipPath>
</defs>
</svg>
